<svg width="23" height="29" viewBox="0 0 23 29" fill="none" xmlns="http://www.w3.org/2000/svg">
<path d="M20.1227 20.1213C20.4144 20.413 20.5602 20.7672 20.5602 21.1838C20.5602 21.6005 20.4144 21.9547 20.1227 22.2463L17.9977 24.3713C17.7061 24.663 17.3519 24.8088 16.9352 24.8088C16.5186 24.8088 16.1644 24.663 15.8727 24.3713L11.279 19.7776L6.68524 24.3713C6.39358 24.663 6.03941 24.8088 5.62274 24.8088C5.20608 24.8088 4.85191 24.663 4.56024 24.3713L2.43524 22.2463C2.14358 21.9547 1.99774 21.6005 1.99774 21.1838C1.99774 20.7672 2.14358 20.413 2.43524 20.1213L7.02899 15.5276L2.43524 10.9338C2.14358 10.6422 1.99774 10.288 1.99774 9.87134C1.99774 9.45467 2.14358 9.1005 2.43524 8.80884L4.56024 6.68384C4.85191 6.39217 5.20608 6.24634 5.62274 6.24634C6.03941 6.24634 6.39358 6.39217 6.68524 6.68384L11.279 11.2776L15.8727 6.68384C16.1644 6.39217 16.5186 6.24634 16.9352 6.24634C17.3519 6.24634 17.7061 6.39217 17.9977 6.68384L20.1227 8.80884C20.4144 9.1005 20.5602 9.45467 20.5602 9.87134C20.5602 10.288 20.4144 10.6422 20.1227 10.9338L15.529 15.5276L20.1227 20.1213Z" fill="#9B0404"/>
</svg>
