<svg width="29" height="29" viewBox="0 0 29 29" fill="none" xmlns="http://www.w3.org/2000/svg">
<path d="M14.064 19.0276L15.8765 17.2151L13.5015 14.8401L11.689 16.6526V17.5276H13.189V19.0276H14.064ZM20.9233 8.29321C21.1004 8.11613 21.1056 7.94425 20.939 7.77759C20.7723 7.61092 20.6004 7.61613 20.4233 7.79321L14.9546 13.262C14.7775 13.439 14.7723 13.6109 14.939 13.7776C15.1056 13.9443 15.2775 13.939 15.4546 13.762L20.9233 8.29321ZM22.189 17.0588V20.0276C22.189 21.2672 21.7489 22.3271 20.8687 23.2073C19.9884 24.0875 18.9285 24.5276 17.689 24.5276H4.68896C3.44938 24.5276 2.38949 24.0875 1.50928 23.2073C0.629069 22.3271 0.188965 21.2672 0.188965 20.0276V7.02759C0.188965 5.788 0.629069 4.72811 1.50928 3.8479C2.38949 2.96769 3.44938 2.52759 4.68896 2.52759H17.689C18.3452 2.52759 18.9546 2.6578 19.5171 2.91821C19.6733 2.99113 19.7671 3.11092 19.7983 3.27759C19.8296 3.45467 19.7827 3.60571 19.6577 3.73071L18.8921 4.49634C18.7463 4.64217 18.5796 4.68384 18.3921 4.62134C18.1525 4.55884 17.9181 4.52759 17.689 4.52759H4.68896C4.00146 4.52759 3.41292 4.77238 2.92334 5.26196C2.43376 5.75155 2.18896 6.34009 2.18896 7.02759V20.0276C2.18896 20.7151 2.43376 21.3036 2.92334 21.7932C3.41292 22.2828 4.00146 22.5276 4.68896 22.5276H17.689C18.3765 22.5276 18.965 22.2828 19.4546 21.7932C19.9442 21.3036 20.189 20.7151 20.189 20.0276V18.0588C20.189 17.9234 20.2358 17.8088 20.3296 17.7151L21.3296 16.7151C21.4858 16.5588 21.6681 16.5224 21.8765 16.6057C22.0848 16.689 22.189 16.8401 22.189 17.0588ZM20.689 5.52759L25.189 10.0276L14.689 20.5276H10.189V16.0276L20.689 5.52759ZM27.6265 7.59009L26.189 9.02759L21.689 4.52759L23.1265 3.09009C23.4181 2.79842 23.7723 2.65259 24.189 2.65259C24.6056 2.65259 24.9598 2.79842 25.2515 3.09009L27.6265 5.46509C27.9181 5.75675 28.064 6.11092 28.064 6.52759C28.064 6.94425 27.9181 7.29842 27.6265 7.59009Z" fill="#169F85"/>
</svg>
